<svg width="393" height="215" viewBox="0 0 393 215" fill="none" xmlns="http://www.w3.org/2000/svg">
<circle cx="5" cy="5.36377" r="5" fill="#F1F1FF"/>
<circle cx="31" cy="5.36377" r="5" fill="#F1F1FF"/>
<circle cx="57" cy="5.36377" r="5" fill="#F1F1FF"/>
<circle cx="83" cy="5.36377" r="5" fill="#F1F1FF"/>
<circle cx="109" cy="5.36377" r="5" fill="#F1F1FF"/>
<circle cx="135" cy="5.36377" r="5" fill="#F1F1FF"/>
<circle cx="161" cy="5.36377" r="5" fill="#F1F1FF"/>
<circle cx="187" cy="5.36377" r="5" fill="#F1F1FF"/>
<circle cx="213" cy="5.36377" r="5" fill="#F1F1FF"/>
<circle cx="239" cy="5.36377" r="5" fill="#F1F1FF"/>
<circle cx="265" cy="5.36377" r="5" fill="#F1F1FF"/>
<circle cx="291" cy="5.36377" r="5" fill="#F1F1FF"/>
<circle cx="317" cy="5.36377" r="5" fill="#F1F1FF"/>
<circle cx="343" cy="5.36377" r="5" fill="#F1F1FF"/>
<circle cx="369" cy="5.36377" r="5" fill="#F1F1FF"/>
<circle cx="395" cy="5.36377" r="5" fill="#F1F1FF"/>
<circle cx="5" cy="39.3638" r="5" fill="#F1F1FF"/>
<circle cx="31" cy="39.3638" r="5" fill="#F1F1FF"/>
<circle cx="57" cy="39.3638" r="5" fill="#F1F1FF"/>
<circle cx="83" cy="39.3638" r="5" fill="#F1F1FF"/>
<circle cx="109" cy="39.3638" r="5" fill="#F1F1FF"/>
<circle cx="135" cy="39.3638" r="5" fill="#F1F1FF"/>
<circle cx="161" cy="39.3638" r="5" fill="#F1F1FF"/>
<circle cx="187" cy="39.3638" r="5" fill="#F1F1FF"/>
<circle cx="213" cy="39.3638" r="5" fill="#F1F1FF"/>
<circle cx="239" cy="39.3638" r="5" fill="#F1F1FF"/>
<circle cx="265" cy="39.3638" r="5" fill="#F1F1FF"/>
<circle cx="291" cy="39.3638" r="5" fill="#F1F1FF"/>
<circle cx="317" cy="39.3638" r="5" fill="#F1F1FF"/>
<circle cx="343" cy="39.3638" r="5" fill="#F1F1FF"/>
<circle cx="369" cy="39.3638" r="5" fill="#F1F1FF"/>
<circle cx="395" cy="39.3638" r="5" fill="#F1F1FF"/>
<circle cx="5" cy="73.3638" r="5" fill="#F1F1FF"/>
<circle cx="31" cy="73.3638" r="5" fill="#F1F1FF"/>
<circle cx="57" cy="73.3638" r="5" fill="#F1F1FF"/>
<circle cx="83" cy="73.3638" r="5" fill="#F1F1FF"/>
<circle cx="109" cy="73.3638" r="5" fill="#F1F1FF"/>
<circle cx="135" cy="73.3638" r="5" fill="#F1F1FF"/>
<circle cx="161" cy="73.3638" r="5" fill="#F1F1FF"/>
<circle cx="187" cy="73.3638" r="5" fill="#F1F1FF"/>
<circle cx="213" cy="73.3638" r="5" fill="#F1F1FF"/>
<circle cx="239" cy="73.3638" r="5" fill="#F1F1FF"/>
<circle cx="265" cy="73.3638" r="5" fill="#F1F1FF"/>
<circle cx="291" cy="73.3638" r="5" fill="#F1F1FF"/>
<circle cx="317" cy="73.3638" r="5" fill="#F1F1FF"/>
<circle cx="343" cy="73.3638" r="5" fill="#F1F1FF"/>
<circle cx="369" cy="73.3638" r="5" fill="#F1F1FF"/>
<circle cx="395" cy="73.3638" r="5" fill="#F1F1FF"/>
<circle cx="5" cy="107.364" r="5" fill="#F1F1FF"/>
<circle cx="31" cy="107.364" r="5" fill="#F1F1FF"/>
<circle cx="57" cy="107.364" r="5" fill="#F1F1FF"/>
<circle cx="83" cy="107.364" r="5" fill="#F1F1FF"/>
<circle cx="109" cy="107.364" r="5" fill="#F1F1FF"/>
<circle cx="135" cy="107.364" r="5" fill="#F1F1FF"/>
<circle cx="161" cy="107.364" r="5" fill="#F1F1FF"/>
<circle cx="187" cy="107.364" r="5" fill="#F1F1FF"/>
<circle cx="213" cy="107.364" r="5" fill="#F1F1FF"/>
<circle cx="239" cy="107.364" r="5" fill="#F1F1FF"/>
<circle cx="265" cy="107.364" r="5" fill="#F1F1FF"/>
<circle cx="291" cy="107.364" r="5" fill="#F1F1FF"/>
<circle cx="317" cy="107.364" r="5" fill="#F1F1FF"/>
<circle cx="343" cy="107.364" r="5" fill="#F1F1FF"/>
<circle cx="369" cy="107.364" r="5" fill="#F1F1FF"/>
<circle cx="395" cy="107.364" r="5" fill="#F1F1FF"/>
<circle cx="5" cy="141.364" r="5" fill="#F1F1FF"/>
<circle cx="31" cy="141.364" r="5" fill="#F1F1FF"/>
<circle cx="57" cy="141.364" r="5" fill="#F1F1FF"/>
<circle cx="83" cy="141.364" r="5" fill="#F1F1FF"/>
<circle cx="109" cy="141.364" r="5" fill="#F1F1FF"/>
<circle cx="135" cy="141.364" r="5" fill="#F1F1FF"/>
<circle cx="161" cy="141.364" r="5" fill="#F1F1FF"/>
<circle cx="187" cy="141.364" r="5" fill="#F1F1FF"/>
<circle cx="213" cy="141.364" r="5" fill="#F1F1FF"/>
<circle cx="239" cy="141.364" r="5" fill="#F1F1FF"/>
<circle cx="265" cy="141.364" r="5" fill="#F1F1FF"/>
<circle cx="291" cy="141.364" r="5" fill="#F1F1FF"/>
<circle cx="317" cy="141.364" r="5" fill="#F1F1FF"/>
<circle cx="343" cy="141.364" r="5" fill="#F1F1FF"/>
<circle cx="369" cy="141.364" r="5" fill="#F1F1FF"/>
<circle cx="395" cy="141.364" r="5" fill="#F1F1FF"/>
<circle cx="5" cy="175.364" r="5" fill="#F1F1FF"/>
<circle cx="31" cy="175.364" r="5" fill="#F1F1FF"/>
<circle cx="57" cy="175.364" r="5" fill="#F1F1FF"/>
<circle cx="83" cy="175.364" r="5" fill="#F1F1FF"/>
<circle cx="109" cy="175.364" r="5" fill="#F1F1FF"/>
<circle cx="135" cy="175.364" r="5" fill="#F1F1FF"/>
<circle cx="161" cy="175.364" r="5" fill="#F1F1FF"/>
<circle cx="187" cy="175.364" r="5" fill="#F1F1FF"/>
<circle cx="213" cy="175.364" r="5" fill="#F1F1FF"/>
<circle cx="239" cy="175.364" r="5" fill="#F1F1FF"/>
<circle cx="265" cy="175.364" r="5" fill="#F1F1FF"/>
<circle cx="291" cy="175.364" r="5" fill="#F1F1FF"/>
<circle cx="317" cy="175.364" r="5" fill="#F1F1FF"/>
<circle cx="343" cy="175.364" r="5" fill="#F1F1FF"/>
<circle cx="369" cy="175.364" r="5" fill="#F1F1FF"/>
<circle cx="395" cy="175.364" r="5" fill="#F1F1FF"/>
<circle cx="5" cy="209.364" r="5" fill="#F1F1FF"/>
<circle cx="31" cy="209.364" r="5" fill="#F1F1FF"/>
<circle cx="57" cy="209.364" r="5" fill="#F1F1FF"/>
<circle cx="83" cy="209.364" r="5" fill="#F1F1FF"/>
<circle cx="109" cy="209.364" r="5" fill="#F1F1FF"/>
<circle cx="135" cy="209.364" r="5" fill="#F1F1FF"/>
<circle cx="161" cy="209.364" r="5" fill="#F1F1FF"/>
<circle cx="187" cy="209.364" r="5" fill="#F1F1FF"/>
<circle cx="213" cy="209.364" r="5" fill="#F1F1FF"/>
<circle cx="239" cy="209.364" r="5" fill="#F1F1FF"/>
<circle cx="265" cy="209.364" r="5" fill="#F1F1FF"/>
<circle cx="291" cy="209.364" r="5" fill="#F1F1FF"/>
<circle cx="317" cy="209.364" r="5" fill="#F1F1FF"/>
<circle cx="343" cy="209.364" r="5" fill="#F1F1FF"/>
<circle cx="369" cy="209.364" r="5" fill="#F1F1FF"/>
<circle cx="395" cy="209.364" r="5" fill="#F1F1FF"/>
</svg>
